<svg width="30" height="34.411" xmlns="http://www.w3.org/2000/svg" xmlns:xlink="http://www.w3.org/1999/xlink"><defs><clipPath id="b"><use xlink:href="#a"/></clipPath></defs><g transform="translate(-14.147 -11.821) scale(.1161)" clip-path="url(#b)"><path id="a" d="m376.99 173.53-125.12-70.88c-2-1.13-4.45-1.11-6.42.05l-120.43 70.88a6.427 6.427 0 0 0-3.17 5.54v141.77c0 2.28 1.2 4.38 3.17 5.54l120.43 70.88c1.01.59 2.13.89 3.26.89s2.18-.28 3.17-.84l83.79-47.47c3.09-1.75 4.17-5.67 2.42-8.76s-5.67-4.18-8.76-2.42l-80.56 45.64-114.07-67.14V182.79l114.07-67.14 118.63 67.21v126.9l-36.7-21.2v-84.17l-81.85-47.26L167 204.39v94.51l81.85 47.26 77.96-45.01 43.8 25.31a6.405 6.405 0 0 0 6.42 0 6.42 6.42 0 0 0 3.21-5.56V179.12c0-2.31-1.24-4.45-3.26-5.59z"/></g></svg>