<svg role="img" viewBox="0 0 24 24" xmlns="http://www.w3.org/2000/svg"><title>Sitio Web</title><path d="M24,18.84V0H0V18.84H10.57v2.94h-3.62v2.23h10.1v-2.23h-3.62v-2.94h10.57ZM1.62,1.72H22.29v15.29H1.62V1.72Zm15.34,5.22c0,.75-.27,1.45-.76,1.98l-1.47,1.57,.02-.13c.11-.64,.04-1.29-.2-1.88v-.03l.59-.64c.22-.23,.33-.53,.33-.86s-.12-.63-.33-.86c-.22-.23-.5-.36-.8-.36s-.59,.13-.8,.36l-2,2.12c-.22,.23-.33,.53-.33,.86s.12,.63,.33,.86c.14,.15,.33,.27,.54,.32l.07,.02-1.14,1.22-.03-.02c-.18-.12-.34-.25-.49-.41-.5-.53-.77-1.23-.77-1.98s.27-1.45,.77-1.98l2-2.12c.5-.53,1.16-.82,1.86-.82s1.36,.29,1.86,.82,.77,1.23,.77,1.97Zm-3.42,.85c.5,.53,.76,1.23,.76,1.98s-.27,1.45-.77,1.98l-2,2.12c-.49,.53-1.15,.82-1.86,.82s-1.36-.29-1.86-.82c-.5-.53-.77-1.23-.77-1.98s.27-1.45,.77-1.98l1.47-1.57-.02,.13c-.11,.64-.04,1.29,.2,1.88v.03l-.59,.64c-.22,.23-.33,.53-.33,.86s.12,.63,.33,.86c.22,.23,.5,.36,.8,.36s.59-.13,.8-.36l2-2.12c.44-.47,.44-1.24,0-1.71-.14-.15-.33-.27-.54-.32l-.07-.02,1.14-1.22,.03,.02c.18,.12,.34,.26,.49,.41Z" /></svg>