<?xml version="1.0" encoding="UTF-8"?><svg id="Capa_2" xmlns="http://www.w3.org/2000/svg" viewBox="0 0 150.96 150"><defs><style>.cls-1{fill:#5757f7;}</style></defs><g id="Capa_1-2"><path class="cls-1" d="M150.96,25.34L107.06,0l-21.06,12.16L64.95,0,0,37.5V112.5l64.95,37.5,64.95-37.5v-24.32l21.05-12.15V25.34ZM64.95,4.1l17.5,10.11-18.39,10.62h0L21.06,49.65v48.64L3.55,108.44V39.55L64.95,4.1Zm61.4,82.03l-19.29,11.14-40.33-23.29v-23.32h0V27.39l19.29-11.14,40.35,23.29v46.58Zm-63.18-10.1v68.85L5.36,111.5l19.25-11.16V51.7L63.17,29.44v46.59h0Zm3.55,2.05l36.78,21.24-36.78,21.24v-42.47Zm59.63,32.37l-59.63,34.43v-20.22l40.33-23.29h0l19.29-11.14v20.22Zm21.05-36.48l-17.5,10.1V37.5L89.56,14.21l17.5-10.11,40.34,23.29v46.58Z"/></g></svg>