<svg xmlns="http://www.w3.org/2000/svg" viewBox="0 0 36 36"><g><rect fill="#5757f7" width="36" height="36"/><path fill="#fff" d="M20.07,32.84c-.11,0-.22-.03-.32-.09l-12.21-7.08c-.2-.11-.32-.33-.32-.55V10.96c0-.23,.12-.44,.32-.55L19.76,3.32c.2-.11,.44-.12,.64,0l6.23,3.56c.31,.18,.41,.57,.24,.87-.18,.31-.57,.41-.87,.24l-5.91-3.38-11.58,6.71v13.43l11.57,6.71,6.75-3.89-2.72-1.64-3.7,2.16c-.2,.12-.45,.12-.65,0l-7.96-4.78c-.19-.12-.31-.32-.31-.55V13.32c0-.23,.12-.44,.32-.55l7.96-4.61c.31-.18,.7-.07,.87,.23,.18,.31,.07,.7-.23,.87l-7.64,4.43v8.71l7.32,4.4,2.77-1.62-3.1-1.87c-.19-.12-.31-.32-.31-.55v-4.62c0-.23,.12-.44,.32-.55l8.19-4.82c.2-.12,.44-.12,.64,0,.2,.11,.32,.33,.32,.56v9.44c0,.23-.12,.44-.32,.55l-3.23,1.88,3.05,1.84c.19,.12,.31,.33,.31,.55,0,.23-.12,.44-.32,.55l-8.01,4.62c-.1,.06-.21,.09-.32,.09Zm.64-10.44l3.39,2.04,3.51-2.05v-7.96l-6.91,4.07v3.89Z"/></g></svg>