<?xml version="1.0" standalone="no"?>
<!DOCTYPE svg PUBLIC "-//W3C//DTD SVG 20010904//EN"
 "http://www.w3.org/TR/2001/REC-SVG-20010904/DTD/svg10.dtd">
<svg version="1.0" xmlns="http://www.w3.org/2000/svg"
 width="700.000000pt" height="700.000000pt" viewBox="0 0 700.000000 700.000000"
 preserveAspectRatio="xMidYMid meet">
<metadata>
Created by potrace 1.14, written by Peter Selinger 2001-2017
</metadata>
<g transform="translate(0.000000,700.000000) scale(0.100000,-0.100000)"
fill="#000000" stroke="none">
<path d="M0 3500 l0 -3500 3500 0 3500 0 0 3500 0 3500 -3500 0 -3500 0 0
-3500z m3816 2103 c269 -156 309 -182 321 -211 12 -30 12 -38 -4 -70 -14 -29
-26 -39 -55 -46 -36 -9 -46 -5 -257 117 -121 70 -223 127 -226 127 -3 0 -5
-120 -5 -266 l0 -266 -29 -29 c-40 -39 -82 -39 -122 0 l-29 29 0 261 c0 144
-3 261 -6 261 -3 0 -94 -52 -202 -116 -226 -134 -255 -143 -302 -96 -35 35
-40 78 -12 111 14 18 594 367 614 370 4 1 145 -79 314 -176z m-1599 -633 c43
-26 54 -80 26 -118 -11 -15 -109 -79 -217 -144 -109 -64 -202 -120 -207 -125
-4 -4 83 -60 194 -123 111 -63 214 -127 230 -142 57 -55 18 -148 -63 -148 -12
0 -115 54 -229 120 -115 66 -216 122 -225 126 -14 6 -16 -18 -16 -246 l0 -252
-29 -29 c-40 -39 -82 -39 -122 0 l-29 29 0 356 0 355 26 20 c15 12 31 21 36
21 6 0 128 69 271 154 144 84 269 156 277 159 27 10 45 7 77 -13z m2951 -151
l302 -171 0 -365 0 -365 -29 -29 c-20 -20 -39 -29 -61 -29 -22 0 -41 9 -61 29
l-29 29 0 260 0 260 -222 -129 c-243 -141 -269 -149 -313 -104 -33 32 -34 85
-2 118 12 13 118 79 235 147 117 67 212 124 210 125 -2 1 -95 55 -208 120
-113 64 -213 126 -222 137 -26 30 -23 84 7 113 46 47 66 39 393 -146z m-1607
-608 l29 -29 0 -261 c0 -144 2 -261 4 -261 3 0 101 56 219 125 132 77 224 125
241 125 37 0 86 -49 86 -87 0 -16 -7 -38 -15 -50 -8 -12 -110 -76 -225 -144
-116 -67 -210 -125 -210 -129 0 -3 93 -60 207 -125 113 -66 214 -128 225 -139
39 -42 9 -128 -49 -139 -38 -7 -58 3 -280 131 -105 62 -194 112 -197 112 -3 0
-6 -106 -6 -235 0 -286 -6 -305 -91 -305 -37 0 -64 13 -75 37 -5 10 -11 127
-14 260 l-5 243 -215 -125 c-118 -69 -225 -125 -238 -125 -28 0 -62 17 -79 39
-18 23 -16 76 5 100 9 12 113 77 230 145 147 86 209 127 200 132 -7 5 -103 61
-212 124 -109 63 -208 127 -219 142 -40 54 2 131 73 131 19 0 103 -42 236
-119 114 -65 211 -120 216 -122 4 -2 8 114 8 258 l0 262 29 29 c20 20 39 29
61 29 22 0 41 -9 61 -29z m-1877 -1101 c20 -20 21 -33 24 -284 l3 -264 221
129 c225 131 261 145 299 116 43 -33 51 -96 17 -130 -13 -12 -119 -78 -236
-146 l-213 -124 218 -123 c119 -68 223 -131 230 -140 21 -29 16 -80 -11 -111
-45 -52 -70 -43 -376 131 -151 86 -286 163 -300 171 l-25 14 -3 366 -2 366 30
31 c27 26 36 30 67 25 20 -4 46 -16 57 -27z m3729 19 c50 -23 52 -36 52 -417
l0 -355 -310 -179 c-334 -192 -337 -193 -382 -142 -15 17 -23 38 -23 63 0 26
7 44 23 58 12 11 110 71 217 133 107 61 198 115 202 119 4 4 -90 63 -209 131
-119 69 -225 137 -236 152 -40 54 2 131 73 131 19 0 105 -43 240 -121 117 -67
216 -122 221 -122 5 0 9 108 9 253 0 250 0 254 23 274 37 34 62 39 100 22z
m-1856 -1083 l28 -24 5 -276 5 -275 215 124 c211 122 248 137 295 119 19 -8
45 -55 45 -83 0 -40 -59 -82 -347 -247 l-292 -166 -43 24 c-24 14 -155 89
-293 168 -137 79 -261 153 -273 165 -32 30 -33 88 -1 121 43 46 74 36 302 -95
l207 -120 0 265 0 266 29 29 c37 36 79 38 118 5z"/>
</g>
</svg>
